<mxfile>
    <diagram id="c-x55PYoPjWjakW_K30p" name="ページ1">
        <mxGraphModel dx="820" dy="478" grid="1" gridSize="10" guides="1" tooltips="1" connect="1" arrows="1" fold="1" page="1" pageScale="1" pageWidth="827" pageHeight="1169" math="0" shadow="0">
            <root>
                <mxCell id="0"/>
                <mxCell id="1" parent="0"/>
                <mxCell id="2" value="ヘッダ" style="rounded=0;whiteSpace=wrap;html=1;" vertex="1" parent="1">
                    <mxGeometry x="220" y="80" width="570" height="90" as="geometry"/>
                </mxCell>
                <mxCell id="3" value="" style="rounded=0;whiteSpace=wrap;html=1;" vertex="1" parent="1">
                    <mxGeometry x="220" y="180" width="570" height="380" as="geometry"/>
                </mxCell>
                <mxCell id="5" value="解説" style="rounded=0;whiteSpace=wrap;html=1;" vertex="1" parent="1">
                    <mxGeometry x="370" y="217.5" width="150" height="40" as="geometry"/>
                </mxCell>
                <mxCell id="6" value="" style="rounded=0;whiteSpace=wrap;html=1;" vertex="1" parent="1">
                    <mxGeometry x="230" y="202.5" width="100" height="335" as="geometry"/>
                </mxCell>
                <mxCell id="7" value="&lt;span style=&quot;font-size: 12px;&quot;&gt;&lt;font style=&quot;font-size: 12px;&quot;&gt;メニュー&lt;/font&gt;&lt;/span&gt;" style="text;html=1;strokeColor=none;fillColor=none;align=center;verticalAlign=middle;whiteSpace=wrap;rounded=0;fontStyle=0;fontSize=12;" vertex="1" parent="1">
                    <mxGeometry x="240" y="217.5" width="80" height="60" as="geometry"/>
                </mxCell>
                <mxCell id="8" value="テスト受験" style="text;html=1;strokeColor=none;fillColor=none;align=center;verticalAlign=middle;whiteSpace=wrap;rounded=0;fontStyle=0;fontSize=15;" vertex="1" parent="1">
                    <mxGeometry x="240" y="292.5" width="80" height="57" as="geometry"/>
                </mxCell>
                <mxCell id="9" value="テスト結果一覧" style="text;html=1;strokeColor=none;fillColor=none;align=center;verticalAlign=middle;whiteSpace=wrap;rounded=0;" vertex="1" parent="1">
                    <mxGeometry x="220" y="352.5" width="120" height="67.5" as="geometry"/>
                </mxCell>
                <mxCell id="18" value="gette.....&lt;br&gt;setter...." style="rounded=0;whiteSpace=wrap;html=1;" vertex="1" parent="1">
                    <mxGeometry x="370" y="320" width="400" height="40" as="geometry"/>
                </mxCell>
                <mxCell id="19" value="解説" style="text;html=1;strokeColor=none;fillColor=none;align=center;verticalAlign=middle;whiteSpace=wrap;rounded=0;" vertex="1" parent="1">
                    <mxGeometry x="370" y="320" width="40" height="20" as="geometry"/>
                </mxCell>
                <mxCell id="20" value="選択肢に対する解説" style="rounded=0;whiteSpace=wrap;html=1;" vertex="1" parent="1">
                    <mxGeometry x="370" y="370" width="400" height="90" as="geometry"/>
                </mxCell>
                <mxCell id="21" value="問題文" style="rounded=0;whiteSpace=wrap;html=1;" vertex="1" parent="1">
                    <mxGeometry x="370" y="270" width="400" height="40" as="geometry"/>
                </mxCell>
                <mxCell id="22" value="問題" style="text;html=1;strokeColor=none;fillColor=none;align=center;verticalAlign=middle;whiteSpace=wrap;rounded=0;" vertex="1" parent="1">
                    <mxGeometry x="370" y="272.5" width="40" height="20" as="geometry"/>
                </mxCell>
                <mxCell id="23" value="問題正誤表(o.x)" style="rounded=0;whiteSpace=wrap;html=1;" vertex="1" parent="1">
                    <mxGeometry x="410" y="470" width="300" height="20" as="geometry"/>
                </mxCell>
                <mxCell id="24" value="戻る" style="rounded=1;whiteSpace=wrap;html=1;" vertex="1" parent="1">
                    <mxGeometry x="430" y="500" width="50" height="20" as="geometry"/>
                </mxCell>
                <mxCell id="25" value="次へ" style="rounded=1;whiteSpace=wrap;html=1;" vertex="1" parent="1">
                    <mxGeometry x="500" y="500" width="50" height="20" as="geometry"/>
                </mxCell>
                <mxCell id="26" value="終了" style="rounded=1;whiteSpace=wrap;html=1;arcSize=10;" vertex="1" parent="1">
                    <mxGeometry x="620" y="500" width="50" height="20" as="geometry"/>
                </mxCell>
            </root>
        </mxGraphModel>
    </diagram>
</mxfile>